<svg xmlns="http://www.w3.org/2000/svg" viewBox="0 0 103.75 35.79"><defs><style>.cls-1{fill:#ec3224;}</style></defs><title>Asset 6</title><g id="Layer_2" data-name="Layer 2"><g id="Layer_2-2" data-name="Layer 2"><path class="cls-1" d="M10.41,20.18h5.37V13.83H10.41V10.32c0-2.45.67-3.64,2.66-3.64a6.62,6.62,0,0,1,2.71.72V.76A6.9,6.9,0,0,0,12.48,0,9.85,9.85,0,0,0,4.91,3.47c-2.12,2.41-2.2,4.61-2.2,7.61v2.75H0v6.35H2.71V35.53h7.7V20.18Z"/><polygon class="cls-1" points="25.28 0.42 17.58 0.42 17.58 35.53 25.28 35.53 25.28 0.42 25.28 0.42"/><path class="cls-1" d="M39.67,19.34a4.71,4.71,0,0,1,4.95,4.91,4.64,4.64,0,0,1-4.95,4.86,4.63,4.63,0,0,1-4.94-4.86,4.71,4.71,0,0,1,4.94-4.91Zm12.4-6h-7.7v2.12a8.87,8.87,0,0,0-6.73-2.83c-6.42,0-10.87,5.32-10.87,11.54s4.53,11.59,11,11.59c2.54,0,5.2-1,6.56-3.13h.08v2.41h7.7V13.37Z"/><path class="cls-1" d="M73.2,13.66a10.6,10.6,0,0,0-5.08-1.27C61.31,12.39,56,17.22,56,24.19c0,6.56,5.37,11.34,11.8,11.34A12.07,12.07,0,0,0,73.2,34.3V27.79a5.93,5.93,0,0,1-3.85,1.48,5.15,5.15,0,0,1-5.42-5.33,5.22,5.22,0,0,1,5.29-5.29,6.82,6.82,0,0,1,4,1.53V13.66Z"/><path class="cls-1" d="M74.94.3V35.41h7.7V24.28c0-2.54,1-5.16,4-5.16s3.47,2.62,3.47,5.16V35.41h7.69V22.13c0-5.5-2.66-9.14-8.16-9.14a8,8,0,0,0-6.94,3.47h-.08V.3Z"/><path class="cls-1" d="M14,35.41A2.38,2.38,0,1,0,11.6,33,2.38,2.38,0,0,0,14,35.41Z"/><path class="cls-1" d="M55.24,35.41A2.38,2.38,0,1,0,52.87,33a2.38,2.38,0,0,0,2.37,2.38Z"/><path class="cls-1" d="M101.38,35.41A2.38,2.38,0,1,0,99,33a2.38,2.38,0,0,0,2.38,2.38Z"/></g></g></svg>